<svg xmlns="http://www.w3.org/2000/svg" width="17" height="17" viewBox="0 0 17 17">
    <path fill="#0F2430" fill-rule="nonzero" d="M8.5 0C6.19 0 5.903.01 4.996.051 4.09.094 3.474.236 2.932.446a4.163 4.163 0 0 0-1.505.98 4.147 4.147 0 0 0-.98 1.507C.235 3.474.092 4.09.05 4.995.009 5.903 0 6.19 0 8.5c0 2.31.01 2.597.051 3.504.043.905.185 1.522.395 2.064.217.558.508 1.033.98 1.505.473.472.947.765 1.507.98.542.21 1.158.354 2.063.396.907.042 1.195.051 3.504.051 2.31 0 2.597-.01 3.504-.051.905-.043 1.522-.186 2.064-.395a4.178 4.178 0 0 0 1.505-.98 4.15 4.15 0 0 0 .98-1.506c.21-.542.354-1.16.396-2.064.042-.907.051-1.195.051-3.504 0-2.31-.01-2.597-.051-3.504-.043-.905-.186-1.522-.395-2.064a4.172 4.172 0 0 0-.98-1.505 4.141 4.141 0 0 0-1.506-.98c-.542-.211-1.16-.354-2.064-.396C11.097.009 10.81 0 8.5 0zm0 1.53c2.269 0 2.54.011 3.435.05.83.04 1.279.177 1.578.294.398.154.68.338.979.635.297.297.48.58.634.978.117.299.255.749.293 1.578.04.896.05 1.165.05 3.435s-.011 2.54-.053 3.435c-.043.83-.181 1.279-.298 1.578-.159.398-.34.68-.637.979a2.652 2.652 0 0 1-.977.634c-.298.117-.755.255-1.583.293-.903.04-1.168.05-3.442.05-2.275 0-2.54-.011-3.442-.053-.83-.043-1.286-.181-1.584-.298a2.632 2.632 0 0 1-.977-.637 2.581 2.581 0 0 1-.637-.977c-.117-.298-.254-.755-.298-1.583-.032-.893-.043-1.168-.043-3.432 0-2.263.011-2.54.043-3.443.044-.829.181-1.285.298-1.582.149-.404.34-.68.637-.978.297-.297.574-.489.977-.637.298-.117.745-.255 1.573-.298.903-.032 1.17-.042 3.442-.042l.032.021zm0 2.605a4.364 4.364 0 1 0 0 8.73 4.364 4.364 0 0 0 0-8.73zm0 7.198a2.833 2.833 0 1 1 0-5.666 2.833 2.833 0 1 1 0 5.666zm5.558-7.37a1.02 1.02 0 1 1-2.042-.001 1.02 1.02 0 0 1 2.042.001z"/>
</svg>
