<svg xmlns="http://www.w3.org/2000/svg" width="18" height="14" viewBox="0 0 18 14">
    <path fill="#0F2430" fill-rule="nonzero" d="M17.247 1.798a7.362 7.362 0 0 1-2.034.543A3.49 3.49 0 0 0 16.77.435a7.447 7.447 0 0 1-2.251.829A3.575 3.575 0 0 0 11.933.171c-1.956 0-3.542 1.542-3.542 3.442 0 .273.032.536.091.787A10.131 10.131 0 0 1 1.181.813 3.304 3.304 0 0 0 .7 2.545c0 1.197.627 2.25 1.576 2.867a3.608 3.608 0 0 1-1.605-.43v.042c0 1.67 1.22 3.062 2.842 3.379a3.694 3.694 0 0 1-1.593.06c.454 1.366 1.76 2.363 3.315 2.391a7.235 7.235 0 0 1-4.394 1.474c-.28 0-.56-.016-.842-.047a10.287 10.287 0 0 0 5.441 1.546c6.519 0 10.08-5.247 10.08-9.79 0-.146 0-.294-.011-.441a7.048 7.048 0 0 0 1.77-1.784l-.033-.014z"/>
</svg>
